<svg xmlns="http://www.w3.org/2000/svg" xmlns:svg="http://www.w3.org/2000/svg" xmlns:xlink="http://www.w3.org/1999/xlink" preserveAspectRatio="none" version="1.1" viewBox="0 0 434 1307"><g id="svg_1"><rect id="svg_2" width="385.5" height="137.84" x="11" y="45.67" fill="#90EE90" stroke="#000" stroke-width="1.5"/><path id="svg_3" fill="none" stroke="#000" stroke-width="1.5" d="m103,45.67l0,12.95l-10,10l-82,0"/><text id="svg_4" x="14" y="62.85" fill="#000" font-family="Segoe UI" font-size="15" lengthAdjust="spacing" textLength="82">Initialization</text><rect id="svg_5" width="84" height="29.95" x="228.5" y="83.95" fill="#FFF" stroke="#181818" stroke-width=".5" rx="12.5" ry="12.5"/><a id="svg_6" xlink:href="https://docs.unity3d.com/ScriptReference/MonoBehaviour.OnEnable.html" xlink:title="https://docs.unity3d.com/ScriptReference/MonoBehaviour.OnEnable.html"><text id="svg_7" x="233.5" y="105.14" fill="#00F" font-family="Segoe UI" font-size="15" lengthAdjust="spacing" textLength="74">OnEnable()</text></a><path id="svg_8" fill="#FFF" stroke="gray" stroke-width=".5" d="m145,127.92l0,41.92a0,0 0 0 0 0,0l80,0a0,0 0 0 0 0,0l0,-16.96l20,-4l-20,-4l0,-6.96l-10,-10l-70,0a0,0 0 0 0 0,0"/><path id="svg_9" fill="#FFF" stroke="gray" stroke-width=".5" d="m215,127.92l0,10l10,0l-10,-10"/><text id="svg_10" x="151" y="145.87" fill="#000" font-family="Segoe UI" font-size="12" lengthAdjust="spacing" textLength="59">Only called</text><text id="svg_11" x="151" y="161.83" fill="#000" font-family="Segoe UI" font-size="12" lengthAdjust="spacing" textLength="26">once</text><rect id="svg_12" width="51" height="29.95" x="245" y="133.9" fill="#FFF" stroke="#181818" stroke-width=".5" rx="12.5" ry="12.5"/><a id="svg_13" xlink:href="https://docs.unity3d.com/ScriptReference/MonoBehaviour.Start.html" xlink:title="https://docs.unity3d.com/ScriptReference/MonoBehaviour.Start.html"><text id="svg_14" x="250" y="155.09" fill="#00F" font-family="Segoe UI" font-size="15" lengthAdjust="spacing" textLength="41">Start()</text></a><rect id="svg_15" width="385.5" height="902.18" x="11" y="191.84" fill="#ADD8E6" stroke="#000" stroke-width="1.5"/><path id="svg_16" fill="none" stroke="#000" stroke-width="1.5" d="m108,191.84l0,12.95l-10,10l-87,0"/><text id="svg_17" x="14" y="209.03" fill="#000" font-family="Segoe UI" font-size="15" lengthAdjust="spacing" textLength="87">Update Loop</text><path id="svg_18" fill="#FFF" stroke="gray" stroke-width=".5" d="m21,265.79l0,57.88a0,0 0 0 0 0,0l161,0a0,0 0 0 0 0,0l0,-24.94l20,-4l-20,-4l0,-14.94l-10,-10l-151,0a0,0 0 0 0 0,0"/><path id="svg_19" fill="#FFF" stroke="gray" stroke-width=".5" d="m172,265.79l0,10l10,0l-10,-10"/><a id="svg_20" xlink:href="https://docs.vrchat.com/docs/network-components#ondeserialization" xlink:title="https://docs.vrchat.com/docs/network-components#ondeserialization"><text id="svg_21" x="27" y="283.74" fill="#00F" font-family="Segoe UI" font-size="12" lengthAdjust="spacing" textLength="100">OnDeserialization()</text></a><a id="svg_22" xlink:href="https://docs.vrchat.com/docs/network-components#onownershiptransferred" xlink:title="https://docs.vrchat.com/docs/network-components#onownershiptransferred"><text id="svg_23" x="27" y="299.7" fill="#00F" font-family="Segoe UI" font-size="12" lengthAdjust="spacing" textLength="140">OnOwnershipTransferred()</text></a><text id="svg_24" x="90" y="315.66" fill="#000" font-family="Segoe UI" font-size="12" lengthAdjust="spacing" textLength="15">•••</text><rect id="svg_25" width="137" height="29.95" x="202" y="279.76" fill="#FFF" stroke="#181818" stroke-width=".5"/><a id="svg_26" xlink:href="https://docs.vrchat.com/docs/udon-networking" xlink:title="https://docs.vrchat.com/docs/udon-networking"><text id="svg_27" x="207" y="300.94" fill="#00F" font-family="Segoe UI" font-size="15" lengthAdjust="spacing" textLength="123">Networking Events</text></a><rect id="svg_29" width="299" height="342.63" x="69.5" y="333.67" fill="#FFF" stroke="#000" stroke-width="1.5"/><path id="svg_30" fill="none" stroke="#000" stroke-width="1.5" d="m201.5,333.67l0,12.95l-10,10l-122,0"/><text id="svg_31" x="72.5" y="350.86" fill="#000" font-family="Segoe UI" font-size="15" lengthAdjust="spacing" textLength="122">FixedUpdate Loop</text><path id="svg_32" fill="#FFF" stroke="gray" stroke-width=".5" d="m79.5,411.64l0,41.92a0,0 0 0 0 0,0l119,0a0,0 0 0 0 0,0l0,-16.96l20,-4l-20,-4l0,-6.96l-10,-10l-109,0a0,0 0 0 0 0,0"/><path id="svg_33" fill="#FFF" stroke="gray" stroke-width=".5" d="m188.5,411.64l0,10l10,0l-10,-10"/><text id="svg_34" x="85.5" y="429.59" fill="#000" font-family="Segoe UI" font-size="12" lengthAdjust="spacing" textLength="98">Matches the user&apos;s</text><text id="svg_35" x="85.5" y="445.55" fill="#000" font-family="Segoe UI" font-size="12" lengthAdjust="spacing" textLength="96">screen refresh rate</text><rect id="svg_36" width="104" height="29.95" x="218.5" y="417.62" fill="#FFF" stroke="#181818" stroke-width=".5" rx="12.5" ry="12.5"/><a id="svg_37" xlink:href="https://docs.unity3d.com/ScriptReference/MonoBehaviour.FixedUpdate.html" xlink:title="https://docs.unity3d.com/ScriptReference/MonoBehaviour.FixedUpdate.html"><text id="svg_38" x="223.5" y="438.81" fill="#00F" font-family="Segoe UI" font-size="15" lengthAdjust="spacing" textLength="94">FixedUpdate()</text></a><rect id="svg_39" width="129" height="29.95" x="206" y="473.56" fill="#FFF" stroke="#181818" stroke-width=".5"/><a id="svg_40" xlink:href="https://docs.unity3d.com/Manual/AnimationEventsOnImportedClips.html" xlink:title="https://docs.unity3d.com/Manual/AnimationEventsOnImportedClips.html"><text id="svg_41" x="211" y="494.75" fill="#00F" font-family="Segoe UI" font-size="15" lengthAdjust="spacing" textLength="115">Animation Events</text></a><path id="svg_43" fill="#FFF" stroke="gray" stroke-width=".5" d="m84,524.5l0,73.84a0,0 0 0 0 0,0l108,0a0,0 0 0 0 0,0l0,-32.92l20,-4l-20,-4l0,-22.92l-10,-10l-98,0a0,0 0 0 0 0,0"/><path id="svg_44" fill="#FFF" stroke="gray" stroke-width=".5" d="m182,524.5l0,10l10,0l-10,-10"/><a id="svg_45" xlink:href="https://docs.vrchat.com/docs/player-collisions" xlink:title="https://docs.vrchat.com/docs/player-collisions"><text id="svg_46" x="90" y="542.45" fill="#00F" font-family="Segoe UI" font-size="12" lengthAdjust="spacing" textLength="73">OnPlayer[...]()</text></a><a id="svg_47" xlink:href="https://docs.unity3d.com/ScriptReference/Collider.OnTriggerEnter.html" xlink:title="https://docs.unity3d.com/ScriptReference/Collider.OnTriggerEnter.html"><text id="svg_48" x="90" y="558.41" fill="#00F" font-family="Segoe UI" font-size="12" lengthAdjust="spacing" textLength="78">OnTrigger[...]()</text></a><a id="svg_49" xlink:href="https://docs.unity3d.com/ScriptReferenceCollider.OnCollisionEnter.html" xlink:title="https://docs.unity3d.com/ScriptReferenceCollider.OnCollisionEnter.html"><text id="svg_50" x="90" y="574.37" fill="#00F" font-family="Segoe UI" font-size="12" lengthAdjust="spacing" textLength="87">OnCollision[...]()</text></a><text id="svg_51" x="123" y="590.33" fill="#000" font-family="Segoe UI" font-size="12" lengthAdjust="spacing" textLength="15">•••</text><rect id="svg_52" width="117" height="29.95" x="212" y="546.44" fill="#FFF" stroke="#181818" stroke-width=".5"/><a id="svg_53" xlink:href="https://docs.unity3d.com/ScriptReference/Collider.OnCollisionEnter.html" xlink:title="https://docs.unity3d.com/ScriptReference/Collider.OnCollisionEnter.html"><text id="svg_54" x="217" y="567.63" fill="#00F" font-family="Segoe UI" font-size="15" lengthAdjust="spacing" textLength="103">Collision events</text></a><polygon id="svg_56" fill="#FFF" stroke="#181818" stroke-width=".5" points="270.5 373.624 282.5 385.624 270.5 397.624 258.5 385.624 270.5 373.624"/><polygon id="svg_57" fill="#FFF" stroke="#181818" stroke-width=".5" points="270.5 632.302 270.5 632.302 282.5 644.302 270.5 656.302 270.5 656.302 258.5 644.302 270.5 632.302"/><path id="svg_58" fill="#FFF" stroke="gray" stroke-width=".5" d="m117.5,686.3l0,57.88a0,0 0 0 0 0,0l86,0a0,0 0 0 0 0,0l0,-24.94l20,-4l-20,-4l0,-14.94l-10,-10l-76,0a0,0 0 0 0 0,0"/><path id="svg_59" fill="#FFF" stroke="gray" stroke-width=".5" d="m193.5,686.3l0,10l10,0l-10,-10"/><a id="svg_60" xlink:href="https://docs.vrchat.com/docs/event-nodes#onpickup" xlink:title="https://docs.vrchat.com/docs/event-nodes#onpickup"><text id="svg_61" x="123.5" y="704.25" fill="#00F" font-family="Segoe UI" font-size="12" lengthAdjust="spacing" textLength="60">OnPickup()</text></a><a id="svg_62" xlink:href="https://docs.vrchat.com/docs/input-events" xlink:title="https://docs.vrchat.com/docs/input-events"><text id="svg_63" x="123.5" y="720.21" fill="#00F" font-family="Segoe UI" font-size="12" lengthAdjust="spacing" textLength="65">InputJump()</text></a><text id="svg_64" x="150.5" y="736.17" fill="#000" font-family="Segoe UI" font-size="12" lengthAdjust="spacing" textLength="15">•••</text><rect id="svg_65" width="94" height="29.95" x="223.5" y="700.27" fill="#FFF" stroke="#181818" stroke-width=".5"/><a id="svg_66" xlink:href="https://docs.unity3d.com/ScriptReference/MonoBehaviour.OnMouseDown.html" xlink:title="https://docs.unity3d.com/ScriptReference/MonoBehaviour.OnMouseDown.html"><text id="svg_67" x="228.5" y="721.45" fill="#00F" font-family="Segoe UI" font-size="15" lengthAdjust="spacing" textLength="80">Input events</text></a><rect id="svg_69" width="69" height="29.95" x="236" y="764.18" fill="#FFF" stroke="#181818" stroke-width=".5" rx="12.5" ry="12.5"/><a id="svg_70" xlink:href="https://docs.unity3d.com/ScriptReference/MonoBehaviour.Update.html" xlink:title="https://docs.unity3d.com/ScriptReference/MonoBehaviour.Update.html"><text id="svg_71" x="241" y="785.37" fill="#00F" font-family="Segoe UI" font-size="15" lengthAdjust="spacing" textLength="59">Update()</text></a><rect id="svg_72" width="129" height="29.95" x="206" y="814.14" fill="#FFF" stroke="#181818" stroke-width=".5"/><a id="svg_73" xlink:href="https://docs.unity3d.com/Manual/AnimationEventsOnImportedClips.html" xlink:title="https://docs.unity3d.com/Manual/AnimationEventsOnImportedClips.html"><text id="svg_74" x="211" y="835.32" fill="#00F" font-family="Segoe UI" font-size="15" lengthAdjust="spacing" textLength="115">Animation Events</text></a><rect id="svg_76" width="97" height="29.95" x="222" y="864.09" fill="#FFF" stroke="#181818" stroke-width=".5" rx="12.5" ry="12.5"/><a id="svg_77" xlink:href="https://docs.unity3d.com/ScriptReference/MonoBehaviour.LateUpdate.html" xlink:title="https://docs.unity3d.com/ScriptReference/MonoBehaviour.LateUpdate.html"><text id="svg_78" x="227" y="885.27" fill="#00F" font-family="Segoe UI" font-size="15" lengthAdjust="spacing" textLength="87">LateUpdate()</text></a><path id="svg_79" fill="#FFF" stroke="gray" stroke-width=".5" d="m81,904.04l0,57.88a0,0 0 0 0 0,0l107,0a0,0 0 0 0 0,0l0,-24.94l20,-4l-20,-4l0,-14.94l-10,-10l-97,0a0,0 0 0 0 0,0"/><path id="svg_80" fill="#FFF" stroke="gray" stroke-width=".5" d="m178,904.04l0,10l10,0l-10,-10"/><a id="svg_81" xlink:href="https://docs.vrchat.com/docs/player-positions" xlink:title="https://docs.vrchat.com/docs/player-positions"><text id="svg_82" x="87" y="921.99" fill="#00F" font-family="Segoe UI" font-size="12" lengthAdjust="spacing" textLength="78">Player position</text></a><text id="svg_83" x="87" y="937.95" fill="#000" font-family="Segoe UI" font-size="12" lengthAdjust="spacing" textLength="86">is most accurate</text><text id="svg_84" x="87" y="953.91" fill="#000" font-family="Segoe UI" font-size="12" lengthAdjust="spacing" textLength="64">in this event</text><rect id="svg_85" width="125" height="29.95" x="208" y="918" fill="#FFF" stroke="#181818" stroke-width=".5" rx="12.5" ry="12.5"/><a id="svg_86" xlink:href="https://docs.vrchat.com/docs/vrchat-202131" xlink:title="https://docs.vrchat.com/docs/vrchat-202131"><text id="svg_87" x="213" y="939.19" fill="#00F" font-family="Segoe UI" font-size="15" lengthAdjust="spacing" textLength="115">PostLateUpdate()</text></a><path id="svg_88" fill="#FFF" stroke="gray" stroke-width=".5" d="m65.5,971.92l0,57.88a0,0 0 0 0 0,0l121,0a0,0 0 0 0 0,0l0,-24.94l20,-4l-20,-4l0,-14.94l-10,-10l-111,0a0,0 0 0 0 0,0"/><path id="svg_89" fill="#FFF" stroke="gray" stroke-width=".5" d="m176.5,971.92l0,10l10,0l-10,-10"/><a id="svg_90" xlink:href="https://docs.unity3d.com/ScriptReference/MonoBehaviour.OnBecameVisible.html" xlink:title="https://docs.unity3d.com/ScriptReference/MonoBehaviour.OnBecameVisible.html"><text id="svg_91" x="71.5" y="989.87" fill="#00F" font-family="Segoe UI" font-size="12" lengthAdjust="spacing" textLength="100">OnBecameVisible()</text></a><a id="svg_92" xlink:href="https://docs.unity3d.com/ScriptReference/MonoBehaviour.OnRenderImage.html" xlink:title="https://docs.unity3d.com/ScriptReference/MonoBehaviour.OnRenderImage.html"><text id="svg_93" x="71.5" y="1005.83" fill="#00F" font-family="Segoe UI" font-size="12" lengthAdjust="spacing" textLength="94">OnRenderImage()</text></a><text id="svg_94" x="113.5" y="1021.79" fill="#000" font-family="Segoe UI" font-size="12" lengthAdjust="spacing" textLength="15">•••</text><rect id="svg_95" width="128" height="29.95" x="206.5" y="985.89" fill="#FFF" stroke="#181818" stroke-width=".5"/><a id="svg_96" xlink:href="https://docs.unity3d.com/Manual/ExecutionOrder.html" xlink:title="https://docs.unity3d.com/Manual/ExecutionOrder.html"><text id="svg_97" x="211.5" y="1007.07" fill="#00F" font-family="Segoe UI" font-size="15" lengthAdjust="spacing" textLength="114">Rendering Events</text></a><polygon id="svg_99" fill="#FFF" stroke="#181818" stroke-width=".5" points="270.5 231.79 282.5 243.79 270.5 255.79 258.5 243.79 270.5 231.79"/><polygon id="svg_100" fill="#FFF" stroke="#181818" stroke-width=".5" points="270.5 1050.02 270.5 1050.02 282.5 1062.02 270.5 1074.02 270.5 1074.02 258.5 1062.02 270.5 1050.02"/><text id="svg_101" x="274.5" y="1090.21" fill="#000" font-family="Segoe UI" font-size="15" lengthAdjust="spacing" textLength="59">Disabled</text><text id="svg_102" x="282.5" y="1058.25" fill="#000" font-family="Segoe UI" font-size="15" lengthAdjust="spacing" textLength="74">Next frame</text><rect id="svg_103" width="385.33" height="195.57" x="11.33" y="1105.95" fill="salmon" stroke="#000" stroke-width="1.5"/><path id="svg_104" fill="none" stroke="#000" stroke-width="1.5" d="m140.33,1105.95l0,12.96l-10,10l-119,0"/><text id="svg_105" x="14.33" y="1123.14" fill="#000" font-family="Segoe UI" font-size="15" lengthAdjust="spacing" textLength="119">Decommissioning</text><rect id="svg_106" width="89" height="29.95" x="226" y="1145.24" fill="#FFF" stroke="#181818" stroke-width=".5" rx="12.5" ry="12.5"/><a id="svg_107" xlink:href="https://docs.unity3d.com/ScriptReference/MonoBehaviour.OnDisable.html" xlink:title="https://docs.unity3d.com/ScriptReference/MonoBehaviour.OnDisable.html"><text id="svg_108" x="231" y="1166.42" fill="#00F" font-family="Segoe UI" font-size="15" lengthAdjust="spacing" textLength="79">OnDisable()</text></a><polygon id="svg_109" fill="#FFF" stroke="#181818" stroke-width=".5" points="270.5 10 282.5 22 270.5 34 258.5 22 270.5 10"/><polygon id="svg_110" fill="#FFF" stroke="#181818" stroke-width=".5" points="270.5 1207.402 270.5 1207.402 282.5 1219.402 270.5 1231.402 270.5 1231.402 258.5 1219.402 270.5 1207.402"/><text id="svg_111" x="274.5" y="1247.59" fill="#000" font-family="Segoe UI" font-size="15" lengthAdjust="spacing" textLength="68">Destroyed</text><text id="svg_112" x="282.5" y="1215.64" fill="#000" font-family="Segoe UI" font-size="15" lengthAdjust="spacing" textLength="54">Enabled</text><rect id="svg_113" width="90" height="29.95" x="225.5" y="1266.4" fill="#FFF" stroke="#181818" stroke-width=".5" rx="12.5" ry="12.5"/><a id="svg_114" xlink:href="https://docs.unity3d.com/ScriptReference/MonoBehaviour.OnDestroy.html" xlink:title="https://docs.unity3d.com/ScriptReference/MonoBehaviour.OnDestroy.html"><text id="svg_115" x="230.5" y="1287.59" fill="#00F" font-family="Segoe UI" font-size="15" lengthAdjust="spacing" textLength="80">OnDestroy()</text></a><line id="svg_116" x1="270.5" x2="270.5" y1="113.9" y2="133.9" stroke="#181818" stroke-width="1"/><polygon id="svg_117" fill="#181818" stroke="#181818" stroke-width="1" points="266.5 123.902 270.5 133.902 274.5 123.902 270.5 127.902"/><line id="svg_118" x1="270.5" x2="270.5" y1="447.58" y2="473.56" stroke="#181818" stroke-width="1"/><polygon id="svg_119" fill="#181818" stroke="#181818" stroke-width="1" points="266.5 463.56 270.5 473.56 274.5 463.56 270.5 467.56"/><line id="svg_120" x1="270.5" x2="270.5" y1="503.51" y2="546.44" stroke="#181818" stroke-width="1"/><polygon id="svg_121" fill="#181818" stroke="#181818" stroke-width="1" points="266.5 536.443 270.5 546.443 274.5 536.443 270.5 540.443"/><line id="svg_122" x1="270.5" x2="270.5" y1="397.62" y2="417.62" stroke="#181818" stroke-width="1"/><polygon id="svg_123" fill="#181818" stroke="#181818" stroke-width="1" points="266.5 407.624 270.5 417.624 274.5 407.624 270.5 411.624"/><line id="svg_124" x1="282.5" x2="347" y1="644.3" y2="644.3" stroke="#181818" stroke-width="1"/><polygon id="svg_125" fill="#181818" stroke="#181818" stroke-width="1" points="343 514.497 347 504.497 351 514.497 347 510.497"/><line id="svg_126" x1="347" x2="347" y1="385.62" y2="644.3" stroke="#181818" stroke-width="1"/><line id="svg_127" x1="347" x2="282.5" y1="385.62" y2="385.62" stroke="#181818" stroke-width="1"/><polygon id="svg_128" fill="#181818" stroke="#181818" stroke-width="1" points="292.5 381.624 282.5 385.624 292.5 389.624 288.5 385.624"/><line id="svg_129" x1="270.5" x2="270.5" y1="576.39" y2="632.3" stroke="#181818" stroke-width="1"/><polygon id="svg_130" fill="#181818" stroke="#181818" stroke-width="1" points="266.5 622.302 270.5 632.302 274.5 622.302 270.5 626.302"/><line id="svg_131" x1="270.5" x2="270.5" y1="309.71" y2="373.62" stroke="#181818" stroke-width="1"/><polygon id="svg_132" fill="#181818" stroke="#181818" stroke-width="1" points="266.5 363.624 270.5 373.624 274.5 363.624 270.5 367.624"/><line id="svg_133" x1="270.5" x2="270.5" y1="656.3" y2="700.27" stroke="#181818" stroke-width="1"/><polygon id="svg_134" fill="#181818" stroke="#181818" stroke-width="1" points="266.5 690.268 270.5 700.268 274.5 690.268 270.5 694.268"/><line id="svg_135" x1="270.5" x2="270.5" y1="730.22" y2="764.18" stroke="#181818" stroke-width="1"/><polygon id="svg_136" fill="#181818" stroke="#181818" stroke-width="1" points="266.5 754.185 270.5 764.185 274.5 754.185 270.5 758.185"/><line id="svg_137" x1="270.5" x2="270.5" y1="794.14" y2="814.14" stroke="#181818" stroke-width="1"/><polygon id="svg_138" fill="#181818" stroke="#181818" stroke-width="1" points="266.5 804.136 270.5 814.136 274.5 804.136 270.5 808.136"/><line id="svg_139" x1="270.5" x2="270.5" y1="844.09" y2="864.09" stroke="#181818" stroke-width="1"/><polygon id="svg_140" fill="#181818" stroke="#181818" stroke-width="1" points="266.5 854.087 270.5 864.087 274.5 854.087 270.5 858.087"/><line id="svg_141" x1="270.5" x2="270.5" y1="894.04" y2="918" stroke="#181818" stroke-width="1"/><polygon id="svg_142" fill="#181818" stroke="#181818" stroke-width="1" points="266.5 908.004 270.5 918.004 274.5 908.004 270.5 912.004"/><line id="svg_143" x1="270.5" x2="270.5" y1="947.96" y2="985.89" stroke="#181818" stroke-width="1"/><polygon id="svg_144" fill="#181818" stroke="#181818" stroke-width="1" points="266.5 975.887 270.5 985.887 274.5 975.887 270.5 979.887"/><line id="svg_145" x1="270.5" x2="270.5" y1="255.79" y2="279.76" stroke="#181818" stroke-width="1"/><polygon id="svg_146" fill="#181818" stroke="#181818" stroke-width="1" points="266.5 269.756 270.5 279.756 274.5 269.756 270.5 273.756"/><line id="svg_147" x1="282.5" x2="380.5" y1="1062.02" y2="1062.02" stroke="#181818" stroke-width="1"/><polygon id="svg_148" fill="#181818" stroke="#181818" stroke-width="1" points="376.5 666.777 380.5 656.777 384.5 666.777 380.5 662.777"/><line id="svg_149" x1="380.5" x2="380.5" y1="243.79" y2="1062.02" stroke="#181818" stroke-width="1"/><line id="svg_150" x1="380.5" x2="282.5" y1="243.79" y2="243.79" stroke="#181818" stroke-width="1"/><polygon id="svg_151" fill="#181818" stroke="#181818" stroke-width="1" points="292.5 239.79 282.5 243.79 292.5 247.79 288.5 243.79"/><line id="svg_152" x1="270.5" x2="270.5" y1="1015.84" y2="1050.02" stroke="#181818" stroke-width="1"/><polygon id="svg_153" fill="#181818" stroke="#181818" stroke-width="1" points="266.5 1040.02 270.5 1050.02 274.5 1040.02 270.5 1044.02"/><line id="svg_154" x1="270.5" x2="270.5" y1="163.85" y2="231.79" stroke="#181818" stroke-width="1"/><polygon id="svg_155" fill="#181818" stroke="#181818" stroke-width="1" points="266.5 221.79 270.5 231.79 274.5 221.79 270.5 225.79"/><line id="svg_156" x1="270.5" x2="270.5" y1="1074.02" y2="1145.24" stroke="#181818" stroke-width="1"/><polygon id="svg_157" fill="#181818" stroke="#181818" stroke-width="1" points="266.5 1135.235 270.5 1145.235 274.5 1135.235 270.5 1139.235"/><line id="svg_158" x1="270.5" x2="270.5" y1="34" y2="83.95" stroke="#181818" stroke-width="1"/><polygon id="svg_159" fill="#181818" stroke="#181818" stroke-width="1" points="266.5 73.951 270.5 83.951 274.5 73.951 270.5 77.951"/><line id="svg_160" x1="282.5" x2="408.5" y1="1219.4" y2="1219.4" stroke="#181818" stroke-width="1"/><polygon id="svg_161" fill="#181818" stroke="#181818" stroke-width="1" points="404.5 618.341 408.5 608.341 412.5 618.341 408.5 614.341"/><line id="svg_162" x1="408.5" x2="408.5" y1="22" y2="1219.4" stroke="#181818" stroke-width="1"/><line id="svg_163" x1="408.5" x2="282.5" y1="22" y2="22" stroke="#181818" stroke-width="1"/><polygon id="svg_164" fill="#181818" stroke="#181818" stroke-width="1" points="292.5 18 282.5 22 292.5 26 288.5 22"/><line id="svg_165" x1="270.5" x2="270.5" y1="1175.19" y2="1207.4" stroke="#181818" stroke-width="1"/><polygon id="svg_166" fill="#181818" stroke="#181818" stroke-width="1" points="266.5 1197.402 270.5 1207.402 274.5 1197.402 270.5 1201.402"/><line id="svg_167" x1="270.5" x2="270.5" y1="1231.4" y2="1266.4" stroke="#181818" stroke-width="1"/><polygon id="svg_168" fill="#181818" stroke="#181818" stroke-width="1" points="266.5 1256.402 270.5 1266.402 274.5 1256.402 270.5 1260.402"/></g></svg>